# xmcd CD database file
# Generated: Mon Jul 8 19:38:34 2002 by KSCD
# 
# Track frame offsets:
#       192
#       13955
#       27020
#       40302
#       53850
#       66430
#       79917
#       93437
#       106355
#       114600
#       129810
#       140052
#       159495
#       169862
#
# Disc length: 2439 seconds
#
# Revision: 1
# Processed by: cddbd v1.4PL0 Copyright (c) Steve Scherf et al.
# Submitted via: Kscd 1.3.2
#
DISCID=be09850e
DTITLE=Münchner Zwietracht - Münchner Zwietracht
DYEAR=1900
DGENRE=
TTITLE0=Auf der Alm
TTITLE1=Die Stenz'n von München
TTITLE2=Ja für Di da dat I
TTITLE3=Klassentreffen
TTITLE4=Mia san Bayern
TTITLE5=Unser Peter
TTITLE6=Ois wieder mal von vorne
TTITLE7=Der Wald
TTITLE8=Heut auf'd nacht
TTITLE9=Die ganz coolen Typen
TTITLE10=Unser Dorf
TTITLE11=Komm mit zum schönen Isarstrand
TTITLE12=Du i brauch Di
TTITLE13=Abgesang
EXTD=
EXTT0=
EXTT1=
EXTT2=
EXTT3=
EXTT4=
EXTT5=
EXTT6=
EXTT7=
EXTT8=
EXTT9=
EXTT10=
EXTT11=
EXTT12=
EXTT13=
PLAYORDER=
